<svg xmlns="http://www.w3.org/2000/svg" width="360" height="180" viewBox="0 0 360 180">
  <defs>
    <linearGradient id="panelFill" x1="0%" y1="0%" x2="100%" y2="100%">
      <stop offset="0%" stop-color="#D91B2B39"/>
      <stop offset="58%" stop-color="#C6172432"/>
      <stop offset="100%" stop-color="#CC112230"/>
    </linearGradient>
    <linearGradient id="panelGloss" x1="0%" y1="0%" x2="0%" y2="100%">
      <stop offset="0%" stop-color="#73FFFFFF"/>
      <stop offset="100%" stop-color="#00FFFFFF"/>
    </linearGradient>
    <linearGradient id="panelStroke" x1="0%" y1="0%" x2="100%" y2="100%">
      <stop offset="0%" stop-color="#9AFFFFFF"/>
      <stop offset="100%" stop-color="#52C4E5FF"/>
    </linearGradient>
  </defs>

  <g id="topleft" transform="translate(0 0)">
    <path d="M20 0 L20 20 L0 20 A20 20 0 0 1 20 0 Z" fill="url(#panelFill)"/>
  </g>
  <g id="top" transform="translate(28 0)">
    <rect width="72" height="20" fill="url(#panelFill)"/>
  </g>
  <g id="topright" transform="translate(108 0)">
    <path d="M0 0 L0 20 L20 20 A20 20 0 0 0 0 0 Z" fill="url(#panelFill)"/>
  </g>
  <g id="left" transform="translate(0 28)">
    <rect width="20" height="24" fill="url(#panelFill)"/>
  </g>
  <g id="center" transform="translate(28 28)">
    <rect width="72" height="24" fill="url(#panelFill)"/>
  </g>
  <g id="right" transform="translate(108 28)">
    <rect width="20" height="24" fill="url(#panelFill)"/>
  </g>
  <g id="bottomleft" transform="translate(0 60)">
    <path d="M0 0 L20 0 L20 20 A20 20 0 0 1 0 0 Z" fill="url(#panelFill)"/>
  </g>
  <g id="bottom" transform="translate(28 60)">
    <rect width="72" height="20" fill="url(#panelFill)"/>
  </g>
  <g id="bottomright" transform="translate(108 60)">
    <path d="M0 20 L0 0 L20 0 A20 20 0 0 1 0 20 Z" fill="url(#panelFill)"/>
  </g>

  <g id="floating-center" transform="translate(172 34)">
    <rect x="0.5" y="0.5" width="147" height="67" rx="33.5" fill="url(#panelFill)" stroke="url(#panelStroke)" stroke-width="1"/>
    <path d="M18 1 H130 C141 1 147 7 147 18 V25 H1 V18 C1 7 7 1 18 1 Z" fill="url(#panelGloss)"/>
  </g>

  <rect id="hint-top-margin" x="144" y="10" width="1" height="14" fill="#000000"/>
  <rect id="hint-right-margin" x="150" y="30" width="14" height="1" fill="#000000"/>
  <rect id="hint-bottom-margin" x="144" y="84" width="1" height="14" fill="#000000"/>
  <rect id="hint-left-margin" x="126" y="30" width="14" height="1" fill="#000000"/>

  <rect id="floating-hint-top-margin" x="334" y="40" width="1" height="10" fill="#000000"/>
  <rect id="floating-hint-right-margin" x="344" y="82" width="10" height="1" fill="#000000"/>
  <rect id="floating-hint-bottom-margin" x="334" y="110" width="1" height="10" fill="#000000"/>
  <rect id="floating-hint-left-margin" x="158" y="82" width="10" height="1" fill="#000000"/>
</svg>
